<?xml version="1.0" encoding="UTF-8"?>
<svg id="Layer_1" xmlns="http://www.w3.org/2000/svg" version="1.1" viewBox="0 0 196.25 250.46">
  <defs>
    <style>
      .st0 {
        fill: #0d2a44;
      }
    </style>
  </defs>
  <path class="st0" d="M73.3,93.17c7.2,4.26,15.34,6.43,24.4,6.49s17.22-1.99,24.48-6.16c7.26-4.17,13-9.95,17.2-17.34s6.34-16.06,6.4-26c.07-9.94-1.92-18.63-5.96-26.09-4.04-7.45-9.66-13.31-16.87-17.57C115.75,2.23,107.61.06,98.56,0c-9.06-.06-17.22,1.99-24.48,6.16-7.27,4.17-13,9.98-17.2,17.44s-6.34,16.16-6.4,26.1c-.07,9.69,1.92,18.29,5.96,25.8,4.04,7.52,9.66,13.4,16.87,17.67h0ZM77,32.98c2.3-4.45,5.34-7.8,9.13-10.04,3.79-2.24,7.89-3.34,12.29-3.32,4.53.03,8.64,1.19,12.34,3.48,3.69,2.29,6.63,5.68,8.8,10.16,2.17,4.48,3.24,10.06,3.19,16.72-.04,6.67-1.21,12.26-3.51,16.78-2.3,4.51-5.31,7.89-9.03,10.13-3.73,2.24-7.86,3.34-12.39,3.31-4.41-.03-8.45-1.19-12.15-3.48-3.7-2.29-6.66-5.71-8.9-10.25-2.23-4.55-3.33-10.15-3.28-16.82.04-6.67,1.21-12.23,3.51-16.68h0Z"/>
  <path class="st0" d="M49.76,250.13l45.8.33c16.46.11,30.1-2.64,40.88-8.23,10.78-5.58,18.79-13.52,24.07-23.83,5.27-10.3,7.95-22.43,8.06-36.39.09-14.22-2.44-26.5-7.56-36.87-4.31-8.71-10.61-15.81-18.86-21.21,32.19-16.05,54.1-49.11,54.1-86.94v-2.18h-15.22l-.2,1.87c-4.73,42.12-40.31,73.89-82.78,73.89S20.02,78.8,15.29,36.68l-.22-1.87H0v2.18c0,36.48,20.34,68.52,50.64,85.13l-.87,128.01h-.01ZM95.12,132.15c5.62.02,10.67.48,15.18,1.35,5.4,1.02,10.02,2.66,13.85,4.86,7.08,4.07,12.11,9.76,15.09,17.1,2.98,7.32,4.44,16.12,4.38,26.4-.07,10.13-1.63,18.84-4.73,26.13-3.09,7.27-8.19,12.85-15.31,16.68s-16.83,5.71-29.12,5.62l-20.25-.13.65-98.16,2.24.02,18.01.13h.01,0Z"/>
</svg>
