<?xml version="1.0" encoding="UTF-8"?>
<svg id="Layer_1" data-name="Layer 1" xmlns="http://www.w3.org/2000/svg" viewBox="0 0 841.89 202.79">
  <defs>
    <style>
      .cls-1 {
        fill: #0f2a44;
      }
    </style>
  </defs>
  <g>
    <path class="cls-1" d="M59.87,75.43c5.83,3.45,12.42,5.2,19.75,5.25,7.34.05,13.94-1.61,19.82-4.99,5.88-3.37,10.52-8.05,13.92-14.04,3.4-5.99,5.13-13.01,5.18-21.05.05-8.05-1.55-15.09-4.82-21.12-3.27-6.03-7.82-10.77-13.66-14.23C94.24,1.8,87.65.05,80.32,0c-7.34-.05-13.94,1.61-19.82,4.99-5.88,3.37-10.52,8.08-13.93,14.12-3.4,6.04-5.13,13.08-5.18,21.13-.05,7.85,1.55,14.81,4.83,20.89,3.27,6.08,7.82,10.85,13.66,14.3ZM62.87,26.7c1.86-3.6,4.32-6.31,7.39-8.13,3.07-1.81,6.38-2.71,9.95-2.68,3.67.02,7,.96,9.99,2.82,2.99,1.85,5.37,4.6,7.13,8.22,1.76,3.63,2.62,8.14,2.58,13.54-.04,5.4-.98,9.93-2.84,13.58-1.86,3.66-4.3,6.39-7.31,8.2-3.02,1.81-6.36,2.71-10.03,2.68-3.57-.02-6.85-.96-9.84-2.82-2.99-1.85-5.39-4.62-7.2-8.3-1.81-3.68-2.69-8.22-2.66-13.62.04-5.4.98-9.9,2.84-13.5Z"/>
    <path class="cls-1" d="M40.29,202.52l37.08.26c13.33.09,24.37-2.13,33.1-6.67,8.73-4.51,15.22-10.95,19.48-19.29,4.27-8.34,6.44-18.16,6.52-29.47.07-11.51-1.97-21.46-6.12-29.85-3.49-7.05-8.59-12.8-15.27-17.18,26.06-13,43.8-39.76,43.8-70.39v-1.76h-12.33l-.16,1.52c-3.83,34.1-32.64,59.83-67.02,59.83S16.21,63.8,12.38,29.7l-.18-1.52H0v1.76c0,29.54,16.47,55.48,41,68.93l-.71,103.65ZM77.02,107c4.55.02,8.64.39,12.29,1.09,4.37.83,8.11,2.15,11.21,3.93,5.73,3.3,9.8,7.9,12.22,13.84,2.42,5.92,3.6,13.05,3.54,21.37-.05,8.2-1.32,15.25-3.83,21.16-2.5,5.89-6.63,10.4-12.4,13.51-5.77,3.1-13.63,4.62-23.58,4.55l-16.4-.11.53-79.47,1.82.02,14.58.11Z"/>
  </g>
  <g>
    <path class="cls-1" d="M219.55,81.52c-5.93-3.45-12.61-5.18-20.03-5.18s-14.1,1.73-20.03,5.18c-5.93,3.46-10.59,8.25-14,14.39-3.4,6.14-5.11,13.28-5.11,21.42s1.67,14.98,5.03,21.11c3.35,6.14,7.99,10.93,13.92,14.38,5.93,3.45,12.61,5.18,20.03,5.18s14.1-1.73,20.03-5.18c5.93-3.45,10.59-8.22,14-14.31,3.4-6.08,5.11-13.2,5.11-21.34s-1.68-15.26-5.03-21.35c-3.35-6.08-7.99-10.85-13.92-14.31ZM216.84,130.94c-1.85,3.71-4.31,6.5-7.35,8.35-3.04,1.86-6.42,2.79-10.13,2.79s-6.94-.93-9.98-2.79c-3.04-1.85-5.49-4.64-7.35-8.35-1.85-3.71-2.79-8.3-2.79-13.76s.93-10.03,2.79-13.69c1.85-3.66,4.33-6.42,7.43-8.27,3.09-1.85,6.44-2.78,10.05-2.78s7.09.93,10.13,2.78c3.04,1.86,5.46,4.62,7.27,8.27,1.8,3.66,2.71,8.23,2.71,13.69s-.93,10.05-2.79,13.76Z"/>
    <path class="cls-1" d="M678.22,81.44c-5.67-3.4-12.33-5.1-19.95-5.1s-14.72,1.76-20.65,5.26c-5.93,3.5-10.52,8.35-13.77,14.54-3.25,6.19-4.87,13.41-4.87,21.65s1.65,14.95,4.95,21.04c3.3,6.08,7.89,10.8,13.77,14.15,5.88,3.35,12.68,5.03,20.42,5.03,6.08,0,11.55-1.11,16.39-3.32,4.85-2.22,8.92-5.26,12.22-9.13,3.3-3.87,5.67-8.22,7.11-13.07h-18.87c-1.34,3.09-3.43,5.57-6.26,7.43-2.84,1.85-6.42,2.79-10.75,2.79-3.92,0-7.45-.9-10.59-2.71-3.14-1.8-5.62-4.46-7.42-7.97-1.53-2.97-2.4-6.43-2.64-10.36h58.39c.21-1.34.31-2.63.31-3.87v-3.4c0-7.11-1.55-13.53-4.64-19.26-3.09-5.72-7.48-10.29-13.15-13.69ZM637.59,109.75c.42-2.98,1.23-5.58,2.43-7.81,1.86-3.45,4.38-6.05,7.58-7.81,3.2-1.75,6.7-2.63,10.52-2.63,5.36,0,9.85,1.63,13.46,4.87,3.61,3.25,5.52,7.71,5.72,13.38h-39.7Z"/>
    <path class="cls-1" d="M501.74,80.13c-5.16-2.53-11.39-3.79-18.71-3.79-6.09,0-11.68,1.11-16.78,3.33-5.11,2.22-9.2,5.31-12.3,9.28-3.09,3.97-4.95,8.74-5.57,14.31h18.25c.72-3.92,2.57-6.83,5.57-8.74,2.99-1.91,6.6-2.86,10.83-2.86,3.71,0,6.75.67,9.13,2.01,2.37,1.34,4.12,3.38,5.26,6.11,1.14,2.73,1.7,6.16,1.7,10.28h-19.64c-7.22,0-13.3,1.01-18.25,3.02-4.95,2.01-8.69,4.82-11.21,8.43-2.53,3.61-3.79,7.89-3.79,12.84,0,4.23,1.03,8.15,3.09,11.75,2.06,3.61,5.21,6.49,9.43,8.66,4.23,2.17,9.54,3.25,15.93,3.25,3.3,0,6.27-.36,8.89-1.08,2.63-.72,4.97-1.72,7.04-3.01,2.06-1.29,3.89-2.81,5.49-4.56,1.6-1.75,2.91-3.66,3.95-5.72l2.1,14.38h15.54v-50.11c0-6.6-1.37-12.24-4.1-16.94-2.73-4.69-6.68-8.3-11.83-10.83ZM498.65,122.43c-.31,2.79-.93,5.41-1.85,7.89-.93,2.47-2.24,4.72-3.95,6.73-1.7,2.01-3.71,3.56-6.03,4.64-2.32,1.08-4.98,1.62-7.97,1.62-2.68,0-5-.41-6.96-1.24-1.96-.82-3.46-2.01-4.48-3.56-1.03-1.55-1.55-3.4-1.55-5.57s.51-4.04,1.55-5.65c1.03-1.6,2.73-2.86,5.1-3.79,2.37-.93,5.36-1.39,8.97-1.39h17.17v.31Z"/>
    <path class="cls-1" d="M590.37,89.02c-2.58-4.02-6.06-7.14-10.44-9.36-4.38-2.22-9.51-3.33-15.39-3.33-7.22,0-13.69,1.78-19.41,5.33-5.72,3.56-10.18,8.41-13.38,14.54-3.2,6.14-4.79,13.12-4.79,20.96s1.57,14.85,4.72,21.03c3.14,6.19,7.55,11.04,13.22,14.54,5.67,3.5,12.12,5.26,19.33,5.26,4.43,0,8.3-.62,11.6-1.85,3.3-1.24,6.14-2.86,8.51-4.87,2.37-2.01,4.38-4.15,6.03-6.42l2.16,13.15h16.41V44.79h-18.56v44.24ZM587.74,130.01c-1.86,3.71-4.49,6.63-7.89,8.74-3.4,2.11-7.32,3.17-11.75,3.17s-8.04-1.06-11.45-3.17c-3.4-2.11-6.06-5.03-7.96-8.74-1.91-3.71-2.86-7.99-2.86-12.84s.95-9.13,2.86-12.84c1.91-3.71,4.56-6.6,7.96-8.66,3.4-2.06,7.22-3.09,11.45-3.09s8.35,1.03,11.75,3.09c3.4,2.06,6.03,4.95,7.89,8.66,1.85,3.71,2.78,7.99,2.78,12.84s-.93,9.12-2.78,12.84Z"/>
    <path class="cls-1" d="M769.08,81.67c-5.62-3.56-12.09-5.33-19.41-5.33-6.29,0-11.55,1.26-15.78,3.79-4.23,2.53-7.58,5.7-10.05,9.51v-44.85h-18.56v113.22h16.19l.35-1.85h.01l2.01-10.83c1.65,2.47,3.71,4.67,6.19,6.57,2.48,1.91,5.36,3.4,8.66,4.49,3.3,1.08,7.01,1.62,11.14,1.62,7.32,0,13.79-1.75,19.41-5.26,5.62-3.5,10.03-8.35,13.22-14.54,3.2-6.19,4.79-13.15,4.79-20.88s-1.62-14.98-4.87-21.11c-3.25-6.13-7.69-10.98-13.3-14.54ZM765.53,130.09c-1.91,3.66-4.56,6.55-7.97,8.66-3.4,2.11-7.27,3.17-11.6,3.17s-8.33-1.06-11.68-3.17c-3.35-2.11-5.98-5-7.89-8.66-1.91-3.66-2.86-7.97-2.86-12.91s.95-9.13,2.86-12.84c1.91-3.71,4.54-6.6,7.89-8.66s7.24-3.09,11.68-3.09,8.2,1.03,11.6,3.09c3.4,2.06,6.06,4.95,7.97,8.66,1.91,3.71,2.86,7.99,2.86,12.84s-.95,9.26-2.86,12.91Z"/>
    <path class="cls-1" d="M302.84,78.19v41.61c0,4.85-.85,8.95-2.55,12.3-1.7,3.35-4.02,5.91-6.96,7.66-2.94,1.76-6.27,2.63-9.98,2.63-5.78,0-10.08-1.72-12.91-5.18-2.84-3.45-4.25-8.53-4.25-15.23v-45.63h-18.56v47.48c0,7.53,1.18,13.84,3.56,18.95,2.37,5.11,5.8,8.92,10.28,11.45,4.49,2.53,9.87,3.79,16.16,3.79s11.21-1.34,15.7-4.02c4.48-2.68,7.91-6.29,10.28-10.83l1.57,14.85h16.22v-81.66h-18.56v1.85Z"/>
    <path class="cls-1" d="M360.68,59.45h-16.4l-1.79,16.83h-13.67v15.65h13.3v39.91c0,6.5,1.11,11.69,3.28,15.47,2.17,3.84,5.14,6.56,9.03,8.23,3.84,1.61,8.41,2.47,13.67,2.47h13.3v-15.78h-9.59c-4.02,0-6.87-.74-8.6-2.23-1.67-1.55-2.54-4.21-2.54-8.17v-39.91h21.22v-15.65h-21.22v-16.83Z"/>
    <path class="cls-1" d="M417.89,59.45h-16.4l-1.79,16.83h-13.67v15.65h13.3v39.91c0,6.5,1.11,11.69,3.28,15.47,2.17,3.84,5.14,6.56,9.03,8.23,3.84,1.61,8.41,2.47,13.67,2.47h13.3v-15.78h-9.59c-4.02,0-6.87-.74-8.6-2.23-1.67-1.55-2.54-4.21-2.54-8.17v-39.91h21.22v-15.65h-21.22v-16.83Z"/>
    <path class="cls-1" d="M820.67,76.28v-16.83h-16.4l-1.79,16.83h-13.67v15.65h13.3v39.91c0,6.5,1.11,11.69,3.28,15.47,2.17,3.84,5.14,6.56,9.03,8.23,3.84,1.61,8.41,2.47,13.67,2.47h13.3v-15.78h-9.59c-4.02,0-6.87-.74-8.6-2.23-1.67-1.55-2.54-4.21-2.54-8.17v-39.91h21.22v-15.65h-21.22Z"/>
  </g>
</svg>
